<svg xmlns="http://www.w3.org/2000/svg" xmlns:xlink="http://www.w3.org/1999/xlink" version="1.1" id="Layer_1" x="0px" y="0px" viewBox="0 0 512 512" style="enable-background:new 0 0 512 512;" xml:space="preserve" width="512"  height="512" >
<g>
	<path d="M479.99,209.96c-44.04,0.11-86.99-13.63-122.8-39.26v178.77c-0.03,89.8-72.85,162.56-162.65,162.53   c-89.8-0.03-162.56-72.85-162.53-162.65s72.85-162.56,162.65-162.53c7.45,0,14.89,0.52,22.27,1.54v89.91   c-39.32-12.37-81.23,9.48-93.6,48.8s9.48,81.23,48.8,93.6c39.32,12.37,81.23-9.48,93.6-48.8c2.28-7.25,3.44-14.8,3.44-22.4V0h88.02   c-0.06,7.43,0.56,14.86,1.86,22.18c6.18,33.02,25.68,62.04,53.92,80.24c19.88,13.14,43.19,20.15,67.02,20.15V209.96z"/>
</g>
</svg>